<svg width="16" height="16" viewBox="0 0 16 16" fill="none" xmlns="http://www.w3.org/2000/svg">
<rect width="16" height="16" fill="white" fill-opacity="0.01"/>
<path fill-rule="evenodd" clip-rule="evenodd" d="M7.99992 2.83723L8.23507 2.60208C9.04778 1.78898 10.1503 1.33215 11.2999 1.33215C12.4495 1.33215 13.552 1.78898 14.3645 2.60186C15.1776 3.41457 15.6345 4.51708 15.6345 5.6667C15.6345 6.81633 15.1776 7.91884 14.3647 8.73144L8.47132 14.6248C8.21097 14.8851 7.78886 14.8851 7.52851 14.6248L1.63518 8.73144C-0.0574293 7.03883 -0.0574294 4.29457 1.63518 2.60197C3.32779 0.909358 6.07205 0.909358 7.76465 2.60197L7.99992 2.83723ZM13.422 7.78852C13.9849 7.22587 14.3011 6.4626 14.3011 5.6667C14.3011 4.87081 13.9849 4.10754 13.4217 3.54466C12.8591 2.98175 12.0958 2.66549 11.2999 2.66549C10.504 2.66549 9.74075 2.98175 9.17799 3.54478L8.47132 4.25144C8.21097 4.51179 7.78886 4.51179 7.52851 4.25144L6.82185 3.54478C5.64994 2.37287 3.7499 2.37287 2.57799 3.54478C1.40608 4.71668 1.40608 6.61672 2.57799 7.78863L7.99992 13.2106L13.422 7.78852Z" fill="black"/>
</svg>
