<svg width="16" height="16" viewBox="0 0 16 16" fill="none" xmlns="http://www.w3.org/2000/svg">
<rect width="16" height="16" fill="white" fill-opacity="0.01"/>
<path fill-rule="evenodd" clip-rule="evenodd" d="M4.94273 12L2.47132 14.4714C2.05135 14.8914 1.33325 14.594 1.33325 14V3.33337C1.33325 2.2288 2.22868 1.33337 3.33325 1.33337H12.6666C13.7712 1.33337 14.6666 2.2288 14.6666 3.33337V10C14.6666 11.1046 13.7712 12 12.6666 12H4.94273ZM2.66659 12.3906L4.19518 10.862C4.3202 10.7369 4.48977 10.6667 4.66659 10.6667H12.6666C13.0348 10.6667 13.3333 10.3682 13.3333 10V3.33337C13.3333 2.96518 13.0348 2.66671 12.6666 2.66671H3.33325C2.96506 2.66671 2.66659 2.96518 2.66659 3.33337V12.3906Z" fill="black"/>
</svg>
