<svg width="36" height="54" viewBox="0 0 36 54" fill="none" xmlns="http://www.w3.org/2000/svg">
<rect x="8" y="16.5306" width="20" height="22.0408" fill="white" fill-opacity="0.01"/>
<path fill-rule="evenodd" clip-rule="evenodd" d="M13.8333 19.2857H22.1666V23.8775H13.8333V19.2857ZM23.8333 18.3673V23.8775H24.6666C26.0473 23.8775 27.1666 25.111 27.1666 26.6326V31.2245C27.1666 32.7461 26.0473 33.9796 24.6666 33.9796H23.8333V36.7347C23.8333 37.2419 23.4602 37.6531 22.9999 37.6531H12.9999C12.5397 37.6531 12.1666 37.2419 12.1666 36.7347V33.9796H11.3333C9.95254 33.9796 8.83325 32.7461 8.83325 31.2245V26.6326C8.83325 25.111 9.95254 23.8775 11.3333 23.8775H12.1666V18.3673C12.1666 17.8601 12.5397 17.449 12.9999 17.449H22.9999C23.4602 17.449 23.8333 17.8601 23.8333 18.3673ZM13.8333 33.0612L13.8333 35.8164H22.1666V33.0626C22.1666 33.0621 22.1666 33.0617 22.1666 33.0612C22.1666 33.0607 22.1666 33.0603 22.1666 33.0598V30.3062H13.8333L13.8333 33.0612ZM23.8333 32.1428V29.3878C23.8333 28.8806 23.4602 28.4694 22.9999 28.4694H12.9999C12.5397 28.4694 12.1666 28.8806 12.1666 29.3878V32.1428H11.3333C10.873 32.1428 10.4999 31.7317 10.4999 31.2245V26.6326C10.4999 26.1254 10.873 25.7142 11.3333 25.7142H12.9928L12.9999 25.7143L13.007 25.7142H22.9928L22.9999 25.7143L23.007 25.7142H24.6666C25.1268 25.7142 25.4999 26.1254 25.4999 26.6326V31.2245C25.4999 31.7317 25.1268 32.1428 24.6666 32.1428H23.8333Z" fill="black"/>
</svg>
