<svg width="16" height="16" viewBox="0 0 16 16" fill="none" xmlns="http://www.w3.org/2000/svg">
<rect x="-0.000732422" width="16" height="16" fill="white" fill-opacity="0.01"/>
<path fill-rule="evenodd" clip-rule="evenodd" d="M14.8942 1.29112C15.6155 2.10841 15.5855 3.3566 14.8041 4.13798L8.47076 10.4713C8.38532 10.5568 8.27826 10.6174 8.16104 10.6467L5.49437 11.3133C5.00612 11.4354 4.56386 10.9931 4.68592 10.5049L5.35259 7.83822C5.38189 7.721 5.44251 7.61394 5.52795 7.5285L11.8613 1.19517C12.6427 0.41379 13.8909 0.383737 14.7081 1.10501L14.8041 1.19517L14.8942 1.29112ZM7.65851 9.39793L13.8613 3.19517C14.1532 2.90323 14.1532 2.42991 13.8613 2.13798C13.5693 1.84604 13.096 1.84604 12.8041 2.13798L6.60132 8.34074L6.24892 9.75033L7.65851 9.39793ZM2.66602 1.99998H7.33268C7.70087 1.99998 7.99935 2.29846 7.99935 2.66665C7.99935 3.03484 7.70087 3.33332 7.33268 3.33332H2.66602C2.29783 3.33332 1.99935 3.63179 1.99935 3.99998V13.3333C1.99935 13.7015 2.29783 14 2.66602 14H11.9993C12.3675 14 12.666 13.7015 12.666 13.3333V8.66665C12.666 8.29846 12.9645 7.99998 13.3327 7.99998C13.7009 7.99998 13.9993 8.29846 13.9993 8.66665V13.3333C13.9993 14.4379 13.1039 15.3333 11.9993 15.3333H2.66602C1.56145 15.3333 0.666016 14.4379 0.666016 13.3333V3.99998C0.666016 2.89541 1.56145 1.99998 2.66602 1.99998Z" fill="black"/>
</svg>
