<svg width="20" height="20" viewBox="0 0 20 20" fill="none" xmlns="http://www.w3.org/2000/svg">
<rect width="20" height="20" fill="white" fill-opacity="0.01"/>
<path fill-rule="evenodd" clip-rule="evenodd" d="M7.5 7.49992V5.83325C7.5 3.07183 9.73858 0.833252 12.5 0.833252H15C15.4602 0.833252 15.8333 1.20635 15.8333 1.66659V4.99992C15.8333 5.46016 15.4602 5.83325 15 5.83325H12.5V7.49992H15C15.5421 7.49992 15.9399 8.00941 15.8085 8.53536L14.9751 11.8687C14.8824 12.2397 14.5491 12.4999 14.1667 12.4999H12.5V18.3333C12.5 18.7935 12.1269 19.1666 11.6667 19.1666H8.33333C7.8731 19.1666 7.5 18.7935 7.5 18.3333V12.4999H5.83333C5.3731 12.4999 5 12.1268 5 11.6666V8.33325C5 7.87301 5.3731 7.49992 5.83333 7.49992H7.5ZM14.1667 2.49992H12.5C10.6591 2.49992 9.16667 3.9923 9.16667 5.83325V8.33325C9.16667 8.79349 8.79357 9.16658 8.33333 9.16658H6.66667V10.8333H8.33333C8.79357 10.8333 9.16667 11.2063 9.16667 11.6666V17.4999H10.8333V11.6666C10.8333 11.2063 11.2064 10.8333 11.6667 10.8333H13.516L13.9327 9.16658H11.6667C11.2064 9.16658 10.8333 8.79349 10.8333 8.33325V5.83325C10.8333 4.91278 11.5795 4.16659 12.5 4.16659H14.1667V2.49992Z" fill="black"/>
</svg>
