<svg width="20" height="20" viewBox="0 0 20 20" fill="none" xmlns="http://www.w3.org/2000/svg">
<rect width="20" height="20" fill="white" fill-opacity="0.01"/>
<path fill-rule="evenodd" clip-rule="evenodd" d="M19.1668 5.83325C19.1668 3.07183 16.9283 0.833252 14.1668 0.833252H5.8335C3.07207 0.833252 0.833496 3.07183 0.833496 5.83325V14.1666C0.833496 16.928 3.07207 19.1666 5.8335 19.1666H14.1668C16.9283 19.1666 19.1668 16.928 19.1668 14.1666V5.83325ZM5.8335 2.49992H14.1668C16.0078 2.49992 17.5002 3.9923 17.5002 5.83325V14.1666C17.5002 16.0075 16.0078 17.4999 14.1668 17.4999H5.8335C3.99255 17.4999 2.50016 16.0075 2.50016 14.1666V5.83325C2.50016 3.9923 3.99255 2.49992 5.8335 2.49992ZM14.1578 9.35259C13.8886 7.53699 12.463 6.11141 10.6474 5.84218C8.86931 5.57851 7.12257 6.48486 6.31441 8.09048C5.50626 9.69611 5.81889 11.639 7.08995 12.9101C8.361 14.1811 10.3039 14.4937 11.9095 13.6856C13.5151 12.8774 14.4215 11.1307 14.1578 9.35259ZM7.80315 8.83982C8.28804 7.87644 9.33608 7.33263 10.4029 7.49083C11.4923 7.65237 12.3477 8.50772 12.5092 9.59708C12.6674 10.6639 12.1236 11.712 11.1602 12.1969C10.1968 12.6818 9.0311 12.4942 8.26847 11.7316C7.50584 10.9689 7.31825 9.80319 7.80315 8.83982ZM15.1728 6.00584C14.8473 6.33128 14.3197 6.33128 13.9942 6.00584C13.6688 5.6804 13.6688 5.15277 13.9942 4.82733C14.3197 4.50189 14.8473 4.50189 15.1728 4.82733C15.4982 5.15277 15.4982 5.6804 15.1728 6.00584Z" fill="black"/>
</svg>
