<svg width="20" height="20" viewBox="0 0 20 20" fill="none" xmlns="http://www.w3.org/2000/svg">
<rect width="20" height="20" fill="white" fill-opacity="0.01"/>
<path fill-rule="evenodd" clip-rule="evenodd" d="M9.16902 6.05932C9.23478 4.23482 10.385 2.61483 12.1043 1.95862C13.7146 1.34399 15.516 1.69246 16.7771 2.82099C17.4538 2.57223 18.0957 2.23557 18.686 1.81916C19.3152 1.37534 20.1582 1.94919 19.9761 2.69731C19.6906 3.86943 19.1184 4.94979 18.3138 5.84264C18.3262 5.97762 18.3326 6.11348 18.3331 6.25013C18.3331 16.133 8.79466 21.2099 0.42835 16.5619C-0.338885 16.1357 -0.0108189 14.9659 0.866173 15.0008C2.27167 15.0567 3.66301 14.7773 4.92818 14.1945C3.0914 13.0623 1.91527 11.5634 1.3383 9.7903C0.742567 7.95952 0.829522 6.03561 1.32651 4.20844C1.47685 3.65573 1.62965 3.23927 1.73821 2.99501C2.00127 2.40313 2.80944 2.32448 3.18168 2.85453C4.52492 4.76723 6.62091 5.9869 8.91093 6.2323L9.16615 6.25555L9.16902 6.05932ZM17.3628 4.38139L17.078 4.48155L16.79 4.57308C16.4761 4.66759 16.136 4.56933 15.9209 4.32201C15.1224 3.40381 13.8355 3.08181 12.6986 3.51574C11.5617 3.94966 10.8167 5.0472 10.833 6.27514V7.10848C10.833 7.5603 10.473 7.92982 10.0213 7.94153C7.30403 8.01199 4.708 6.94234 2.83643 5.03619C2.50723 6.4571 2.48316 7.92241 2.92316 9.2746C3.48735 11.0084 4.77889 12.416 7.00483 13.4053C7.60213 13.6708 7.67521 14.4892 7.1344 14.8563C6.20182 15.4893 5.17998 15.9644 4.10971 16.2699C10.509 17.9535 16.6664 13.7053 16.6664 6.2529C16.6658 6.07236 16.6484 5.89226 16.6145 5.71493C16.5623 5.44172 16.6498 5.16046 16.8479 4.96514C17.0335 4.78207 17.2055 4.58694 17.3628 4.38139Z" fill="#7F7F7F"/>
</svg>
