<svg width="32" height="32" viewBox="0 0 32 32" fill="none" xmlns="http://www.w3.org/2000/svg">
<rect width="32" height="32" fill="white" fill-opacity="0.01"/>
<path fill-rule="evenodd" clip-rule="evenodd" d="M7.44181 29.0851C6.55932 29.7154 5.3335 29.0846 5.3335 28.0001V6.66675C5.3335 4.45761 7.12436 2.66675 9.3335 2.66675H22.6668C24.876 2.66675 26.6668 4.45761 26.6668 6.66675V28.0001C26.6668 29.0846 25.441 29.7154 24.5585 29.0851L16.0002 22.972L7.44181 29.0851ZM24.0002 25.4092V6.66675C24.0002 5.93037 23.4032 5.33341 22.6668 5.33341H9.3335C8.59712 5.33341 8.00016 5.93037 8.00016 6.66675V25.4092L15.2252 20.2484C15.6888 19.9173 16.3116 19.9173 16.7751 20.2484L24.0002 25.4092Z" fill="black"/>
</svg>
