<svg width="16" height="16" viewBox="0 0 16 16" fill="none" xmlns="http://www.w3.org/2000/svg">
<rect width="16" height="16" fill="white" fill-opacity="0.01"/>
<path fill-rule="evenodd" clip-rule="evenodd" d="M10.0002 1.99996V1.33329C10.0002 0.965103 10.2986 0.666626 10.6668 0.666626C11.035 0.666626 11.3335 0.965103 11.3335 1.33329V1.99996H12.6668C13.7714 1.99996 14.6668 2.89539 14.6668 3.99996V6.66663V13.3333C14.6668 14.4379 13.7714 15.3333 12.6668 15.3333H3.3335C2.22893 15.3333 1.3335 14.4379 1.3335 13.3333V6.66663V3.99996C1.3335 2.89539 2.22893 1.99996 3.3335 1.99996H4.66683V1.33329C4.66683 0.965103 4.96531 0.666626 5.3335 0.666626C5.70169 0.666626 6.00016 0.965103 6.00016 1.33329V1.99996H10.0002ZM2.66683 7.33329V13.3333C2.66683 13.7015 2.96531 14 3.3335 14H12.6668C13.035 14 13.3335 13.7015 13.3335 13.3333V7.33329H2.66683ZM13.3335 5.99996H2.66683V3.99996C2.66683 3.63177 2.96531 3.33329 3.3335 3.33329H4.66683V3.99996C4.66683 4.36815 4.96531 4.66663 5.3335 4.66663C5.70169 4.66663 6.00016 4.36815 6.00016 3.99996V3.33329H10.0002V3.99996C10.0002 4.36815 10.2986 4.66663 10.6668 4.66663C11.035 4.66663 11.3335 4.36815 11.3335 3.99996V3.33329H12.6668C13.035 3.33329 13.3335 3.63177 13.3335 3.99996V5.99996Z" fill="black"/>
</svg>
