<svg width="16" height="16" viewBox="0 0 16 16" fill="none" xmlns="http://www.w3.org/2000/svg">
<rect width="16" height="16" fill="white" fill-opacity="0.01"/>
<path fill-rule="evenodd" clip-rule="evenodd" d="M4.94297 12L2.47157 14.4714C2.05159 14.8914 1.3335 14.594 1.3335 14V3.33337C1.3335 2.2288 2.22893 1.33337 3.3335 1.33337H12.6668C13.7714 1.33337 14.6668 2.2288 14.6668 3.33337V10C14.6668 11.1046 13.7714 12 12.6668 12H4.94297ZM2.66683 12.3906L4.19542 10.862C4.32045 10.7369 4.49002 10.6667 4.66683 10.6667H12.6668C13.035 10.6667 13.3335 10.3682 13.3335 10V3.33337C13.3335 2.96518 13.035 2.66671 12.6668 2.66671H3.3335C2.96531 2.66671 2.66683 2.96518 2.66683 3.33337V12.3906Z" fill="black"/>
</svg>
