<svg width="20" height="20" viewBox="0 0 20 20" fill="none" xmlns="http://www.w3.org/2000/svg">
<rect width="20" height="20" fill="white" fill-opacity="0.01"/>
<path fill-rule="evenodd" clip-rule="evenodd" d="M9.16951 6.05907C9.23527 4.23458 10.3855 2.61459 12.1048 1.95838C13.7151 1.34375 15.5165 1.69222 16.7775 2.82075C17.4543 2.57199 18.0962 2.23533 18.6865 1.81891C19.3157 1.37509 20.1587 1.94895 19.9765 2.69706C19.6911 3.86918 19.1189 4.94955 18.3143 5.84239C18.3266 5.97737 18.3331 6.11323 18.3335 6.24988C18.3335 16.1327 8.79515 21.2096 0.428838 16.5617C-0.338397 16.1354 -0.0103306 14.9657 0.866661 15.0005C2.27216 15.0564 3.6635 14.777 4.92867 14.1942C3.09189 13.0621 1.91576 11.5632 1.33878 9.79005C0.743056 7.95928 0.83001 6.03536 1.327 4.20819C1.47734 3.65548 1.63014 3.23903 1.7387 2.99477C2.00176 2.40288 2.80993 2.32423 3.18217 2.85429C4.52541 4.76699 6.6214 5.98665 8.91142 6.23206L9.16664 6.2553L9.16951 6.05907ZM17.3633 4.38115L17.0785 4.48131L16.7905 4.57284C16.4766 4.66735 16.1365 4.56909 15.9214 4.32176C15.1228 3.40356 13.836 3.08157 12.6991 3.51549C11.5622 3.94942 10.8171 5.04696 10.8335 6.2749V7.10823C10.8335 7.56005 10.4735 7.92957 10.0218 7.94129C7.30452 8.01174 4.70849 6.94209 2.83691 5.03595C2.50772 6.45686 2.48365 7.92217 2.92365 9.27435C3.48784 11.0082 4.77937 12.4157 7.00531 13.4051C7.60262 13.6705 7.6757 14.489 7.13489 14.8561C6.2023 15.4891 5.18046 15.9642 4.1102 16.2697C10.5095 17.9532 16.6669 13.7051 16.6669 6.25265C16.6663 6.07211 16.6489 5.89202 16.615 5.71469C16.5628 5.44147 16.6503 5.16021 16.8484 4.96489C17.034 4.78182 17.206 4.5867 17.3633 4.38115Z" fill="black"/>
</svg>
